<svg width="21" height="21" viewBox="0 0 21 21" fill="none" xmlns="http://www.w3.org/2000/svg">
<path d="M0.500012 7.58053C0.505573 4.96287 2.39928 2.73212 4.97947 2.30209L4.98097 2.30183C6.65486 2.01761 8.4317 2.57536 9.65399 3.79952L9.65455 3.80008L10.1467 4.29145L10.514 4.65813L10.8668 4.27743L11.3132 3.79561C12.575 2.57118 14.3148 2.01819 16.0206 2.30209L0.500012 7.58053ZM0.500012 7.58053V7.82998C0.500012 9.39372 1.1493 10.8895 2.29286 11.9554L2.29313 11.9557L9.70503 18.875C9.70504 18.875 9.70505 18.875 9.70507 18.875C9.91985 19.0755 10.2039 19.1876 10.5 19.1876C10.7961 19.1876 11.0801 19.0755 11.2949 18.875C11.2949 18.875 11.295 18.875 11.295 18.875L18.7064 11.9557L18.707 11.9552C19.8518 10.8895 20.5 9.39393 20.5 7.82998V7.59209C20.5 4.96941 18.6053 2.7328 16.0206 2.3021L0.500012 7.58053Z" stroke="black"/>
</svg>
